<?xml version="1.0" standalone="no"?><!DOCTYPE svg PUBLIC "-//W3C//DTD SVG 1.1//EN" "http://www.w3.org/Graphics/SVG/1.1/DTD/svg11.dtd"><svg t="1496891299672" class="icon" style="" viewBox="0 0 1024 1024" version="1.1" xmlns="http://www.w3.org/2000/svg" p-id="10729" xmlns:xlink="http://www.w3.org/1999/xlink" width="24" height="24"><defs><style type="text/css"></style></defs><path d="M490.518756 630.154004c-78.238922-14.175861-111.402229-63.469544-111.402229-159.834288l0-78.468143c0-7.627724-6.172583-13.799284-13.799284-13.799284-7.626701 0-13.799284 6.170536-13.799284 13.799284l0 78.468143c0 109.260449 42.703591 170.426531 134.068462 187.001021 0.836041 0.147356-0.039909 0.214894 0.768503 0.214894 6.54916 0 13.205766-4.676509 14.418384-11.333116C502.122025 638.696564 498.011404 631.513978 490.518756 630.154004z" p-id="10730" fill="#1abc9c"></path><path d="M527.495926 684.487469l13.799284 0c7.627724 0 13.799284-6.172583 13.799284-13.799284s-6.170536-13.799284-13.799284-13.799284l-13.799284 0c-7.626701 0-13.799284 6.172583-13.799284 13.799284S519.869225 684.487469 527.495926 684.487469z" p-id="10731" fill="#1abc9c"></path><path d="M816.545134 544.607652c91.125417-27.13501 147.96496-196.35711 147.96496-288.455691 0-36.600593-8.853645-62.972217-27.073612-80.650855-28.230971-27.396977-70.12615-26.143427-114.515127-24.769127-0.737804 0.022513-1.494027 0.044002-2.236947 0.066515L820.684408 88.273463c0-15.241123-15.767102-24.741497-31.008224-24.741497l-524.362562 0c-15.241123 0-24.187889 9.500375-24.187889 24.741497l0 64.415079c-2.663666-0.856507-5.501294-1.323135-8.449439-1.323135-10.861372 0-21.439288-0.323365-31.599695-0.633427-44.308135-1.360997-86.271876-2.62785-114.51615 24.769127-18.218944 17.679661-27.072589 44.050262-27.072589 80.650855 0 100.325963 67.445088 292.177456 173.188434 292.177456 4.507664 0 8.758478-1.087774 12.516058-3.004427C266.346137 671.048389 367.851972 776.784572 489.508753 792.768615l0 112.503307L320.510758 905.271922c-15.241123 0-27.597545 12.357446-27.597545 27.597545s12.357446 27.597545 27.597545 27.597545l400.171052 0c15.241123 0 27.597545-12.357446 27.597545-27.597545s-12.357446-27.597545-27.597545-27.597545L544.704866 905.271922 544.704866 794.630009C675.91114 788.990568 793.405111 677.951613 816.545134 544.607652zM114.684996 256.151961c0-14.149255 1.792832-32.759101 10.30981-41.032532 11.494799-11.118222 42.056861-10.201339 74.41278-9.217942 10.69969 0.322341 21.830191 0.660032 33.270754 0.660032 2.948145 0 5.785773-0.466628 8.449439-1.323135l0 289.218054c-2.663666-0.856507-5.501294-1.323135-8.449439-1.323135C177.967274 493.133304 114.684996 349.72615 114.684996 256.151961zM824.592414 205.90251c32.382525-0.983397 62.931285-1.90028 74.41278 9.217942 8.516977 8.273431 10.308787 26.883277 10.308787 41.032532 0 77.064166-42.922578 187.912787-88.629573 224.63413L820.684408 206.01712C821.987077 205.978235 823.303049 205.941396 824.592414 205.90251zM296.322869 497.123174 296.322869 118.728078l469.166449 0 0 50.517557c-1.137916 3.02387-1.765203 6.297426-1.765203 9.718339s0.627287 6.694469 1.765203 9.718339l0 308.441884c0 5.234211-0.212848 10.453073-0.594541 15.650445-0.75827 2.520403-1.170662 5.191232-1.170662 7.958252 0 0.889253 0.046049 1.76725 0.127913 2.63399-14.133905 115.067712-118.723985 216.316697-229.591025 216.316697l-4.927219 0c-3.685949-1.825578-7.835456-2.856048-12.227486-2.856048-3.852748 0-7.520277 0.792039-10.851139 2.218528C393.060097 729.73807 296.322869 617.270579 296.322869 497.123174z" p-id="10732" fill="#1abc9c"></path></svg>