<?xml version="1.0" standalone="no"?><!DOCTYPE svg PUBLIC "-//W3C//DTD SVG 1.1//EN" "http://www.w3.org/Graphics/SVG/1.1/DTD/svg11.dtd"><svg t="1496891100979" class="icon" style="" viewBox="0 0 1024 1024" version="1.1" xmlns="http://www.w3.org/2000/svg" p-id="9950" xmlns:xlink="http://www.w3.org/1999/xlink" width="24" height="24"><defs><style type="text/css"></style></defs><path d="M951.686021 267.079848 730.850403 267.079848 599.307462 137.073912c0-0.443092 0-0.680499 0-1.12359 0-40.417525-32.730449-73.119321-73.237001-73.119321-40.388872 0-73.17765 32.789801-73.17765 73.207325 0 1.804089 0.089028 3.341095 0.236384 5.085832L318.65755 267.079848 77.983095 267.079848c-19.36607 0-34.060747 16.232706-34.060747 35.598776l0 620.639303c0 19.336394 14.694677 35.096333 34.060747 35.096333l873.67325 0c19.395746 0 34.031071-15.670911 34.031071-35.096333L985.687416 302.7083C985.776444 283.341207 971.111442 267.079848 951.686021 267.079848zM492.245074 200.642716c10.140964 5.29254 21.642926 8.456602 33.913391 8.456602 13.245675 0 25.634844-3.75451 36.367279-9.874905l68.712965 67.856457-210.04383 0L492.245074 200.642716zM916.64904 889.256156 113.049752 889.256156 113.049752 338.39508l803.599288 0C916.64904 338.39508 916.64904 889.256156 916.64904 889.256156z" p-id="9951" fill="#1abc9c"></path><path d="M153.969721 426.977581c0 19.336394 15.641235 34.534538 35.036981 34.534538l651.65469 0c19.395746 0 35.126009-15.19712 35.126009-34.534538 0-19.36607-15.670911-34.564213-35.126009-34.564213L189.006701 392.413368C169.610956 392.384715 153.969721 407.611511 153.969721 426.977581z" p-id="9952" fill="#1abc9c"></path><path d="M840.720743 517.689582 189.006701 517.689582c-19.395746 0-35.036981 15.19712-35.036981 34.564213 0 19.336394 15.641235 34.534538 35.036981 34.534538l651.65469 0c19.395746 0 35.126009-15.19712 35.126009-34.534538C875.757724 532.886703 860.086813 517.689582 840.720743 517.689582z" p-id="9953" fill="#1abc9c"></path><path d="M817.777195 651.627061 529.647939 651.627061c-19.336394 0-35.066657 15.226796-35.066657 34.534538 0 19.336394 15.699564 34.592866 35.066657 34.592866l288.129256 0c19.395746 0 35.126009-15.19712 35.126009-34.592866C852.90218 666.853857 837.172941 651.627061 817.777195 651.627061z" p-id="9954" fill="#1abc9c"></path><path d="M817.777195 781.248234 529.647939 781.248234c-19.336394 0-35.066657 15.19712-35.066657 34.564213 0 19.336394 15.699564 34.592866 35.066657 34.592866l288.129256 0c19.395746 0 35.126009-15.256472 35.126009-34.592866C852.90218 796.446377 837.172941 781.248234 817.777195 781.248234z" p-id="9955" fill="#1abc9c"></path><path d="M392.249639 705.97076l-44.586474-9.225105c-8.367575-1.715061-18.686594-9.165754-22.855544-16.616446l-22.559808-39.58967c-4.198625-7.391341-11.087523-7.391341-15.315824 0l-22.530133 39.58967c-4.228301 7.450692-14.517645 14.901385-22.825868 16.616446l-44.586474 9.225105c-8.308223 1.715061-10.496052 8.308223-4.701069 14.605649l30.601972 33.617655c5.735631 6.297426 9.697873 18.390859 8.78099 26.846438l-5.02648 45.207621c-0.975211 8.456602 4.612041 12.536524 12.388145 9.018398l41.453111-18.71627c7.746428-3.518127 20.430308-3.518127 28.236088 0l41.453111 18.71627c7.746428 3.518127 13.334703-0.561795 12.359492-9.018398l-4.996804-45.207621c-0.946558-8.456602 2.986007-20.549012 8.78099-26.846438l30.601972-33.617655C402.687362 714.308659 400.557862 707.685821 392.249639 705.97076z" p-id="9956" fill="#1abc9c"></path></svg>