<?xml version="1.0" standalone="no"?><!DOCTYPE svg PUBLIC "-//W3C//DTD SVG 1.1//EN" "http://www.w3.org/Graphics/SVG/1.1/DTD/svg11.dtd"><svg t="1496890828126" class="icon" style="" viewBox="0 0 1024 1024" version="1.1" xmlns="http://www.w3.org/2000/svg" p-id="2373" xmlns:xlink="http://www.w3.org/1999/xlink" width="24" height="24"><defs><style type="text/css"></style></defs><path d="M961.885825 227.346915c0 15.953344-13.053294 29.006637-29.007661 29.006637L91.672374 256.353552c-15.954367 0-29.007661-13.053294-29.007661-29.006637l0-69.617567c0-15.953344 13.053294-29.006637 29.007661-29.006637l841.20579 0c15.954367 0 29.007661 13.053294 29.007661 29.006637L961.885825 227.346915z" p-id="2374" fill="#1abc9c"></path><path d="M961.885825 546.602076c0 15.954367-13.053294 29.007661-29.007661 29.007661L91.672374 575.609737c-15.954367 0-29.007661-13.053294-29.007661-29.007661l0-69.616544c0-15.954367 13.053294-29.007661 29.007661-29.007661l841.20579 0c15.954367 0 29.007661 13.053294 29.007661 29.007661L961.885825 546.602076z" p-id="2375" fill="#1abc9c"></path><path d="M961.885825 865.857237c0 15.954367-13.053294 29.007661-29.007661 29.007661L91.672374 894.864898c-15.954367 0-29.007661-13.053294-29.007661-29.007661l0-69.616544c0-15.954367 13.053294-29.007661 29.007661-29.007661l841.20579 0c15.954367 0 29.007661 13.053294 29.007661 29.007661L961.885825 865.857237z" p-id="2376" fill="#1abc9c"></path></svg>