<?xml version="1.0" standalone="no"?><!DOCTYPE svg PUBLIC "-//W3C//DTD SVG 1.1//EN" "http://www.w3.org/Graphics/SVG/1.1/DTD/svg11.dtd"><svg t="1496890885020" class="icon" style="" viewBox="0 0 1024 1024" version="1.1" xmlns="http://www.w3.org/2000/svg" p-id="3199" xmlns:xlink="http://www.w3.org/1999/xlink" width="24" height="24"><defs><style type="text/css"></style></defs><path d="M919.900084 332.292082 671.054529 132.411729c-42.468231-34.073026-102.32141-30.101575-133.670395 8.94165L161.249521 609.664344c-31.344892 39.018665-22.37766 98.305957 20.090571 132.466987l248.815879 199.86091c42.493813 34.06791 102.351086 30.072923 133.694955-8.946766l376.134613-468.286406C971.381595 425.76087 962.365244 366.429577 919.900084 332.292082L919.900084 332.292082zM403.555126 812.316833c-9.620102 12.050454-35.58752 7.263427-57.876152-10.623965-22.333658-17.933441-32.553417-42.217521-22.884197-54.247508 9.66922-12.050454 35.592636-7.287987 57.881268 10.619872C402.990261 775.996626 413.224346 800.267403 403.555126 812.316833L403.555126 812.316833zM856.617805 481.736742 624.096031 771.184017c-34.093493 42.48972-78.082356 63.833841-98.148367 47.62467L280.94053 622.056582c-20.11206-16.134469-8.80862-63.644529 25.333992-106.158808L538.795273 226.380914c34.091446-42.38125 78.081333-63.738673 98.191346-47.599088l244.98462 196.771549C902.056694 391.762545 890.729717 439.312514 856.617805 481.736742L856.617805 481.736742zM386.66648 58.870806c-69.723991 2.177596-151.622256 48.751331-218.806401 124.471896-70.388117 79.3093-108.456131 171.827437-101.82613 247.413949 1.178849 13.571087 13.164834 23.606651 26.715455 22.422685 0.202615-0.020466 0.38681-0.044002 0.589424-0.064468 13.277398-1.475608 23.041786-13.277398 21.833261-26.694989-5.376451-61.397349 28.968775-141.979642 89.593528-210.29761C262.240633 151.339824 332.558142 109.893876 388.255675 108.211561c13.710256-0.405229 24.314779-11.846816 23.883967-25.468045C411.68427 69.128427 400.287709 58.434877 386.66648 58.870806L386.66648 58.870806zM390.187677 158.786423c-50.79692 1.158383-107.455337 34.003442-151.895479 87.344301-45.197388 54.246485-67.347874 117.777427-59.21873 169.915901 2.01489 13.120832 14.026458 22.200628 27.057239 20.74958 0.361227-0.049119 0.722454-0.094144 1.084705-0.158612 13.481036-2.114151 22.700001-14.709003 20.61041-28.170596-5.901407-37.771255 12.669554-87.889723 48.396243-130.745786 34.954093-41.968857 79.127152-68.317968 115.307166-69.634963 13.570063-0.094144 24.379247-11.713786 24.012903-25.333992C415.155325 169.138188 403.807882 158.37403 390.187677 158.786423L390.187677 158.786423zM390.187677 158.786423" p-id="3200" fill="#1abc9c"></path></svg>