<?xml version="1.0" standalone="no"?><!DOCTYPE svg PUBLIC "-//W3C//DTD SVG 1.1//EN" "http://www.w3.org/Graphics/SVG/1.1/DTD/svg11.dtd"><svg t="1496892051276" class="icon" style="" viewBox="0 0 1024 1024" version="1.1" xmlns="http://www.w3.org/2000/svg" p-id="3967" xmlns:xlink="http://www.w3.org/1999/xlink" width="24" height="24"><defs><style type="text/css"></style></defs><path d="M508.608 48C254.464 48 48.416 254.048 48.416 508.192c0 254.112 206.048 460.192 460.224 460.192s460.224-206.08 460.224-460.192C968.832 254.048 762.784 48 508.608 48zM226.592 226.176c32.288-32.256 69.248-58.4 109.952-77.92-29.632 39.456-54.336 88.864-72.192 145.184h-91.936c15.456-24.192 33.568-46.688 54.176-67.264zM140.32 354.784h107.872c-8.224 38.752-13.408 79.968-15.104 122.72H110.944c3.168-42.4 13.056-83.488 29.376-122.72zM110.944 538.88h122.144c1.728 42.752 6.88 83.936 15.104 122.72H140.32c-16.384-39.232-26.208-80.32-29.376-122.72z m115.648 251.296a396.851 396.851 0 0 1-54.176-67.232h91.936c17.856 56.32 42.528 105.696 72.192 145.184-40.8-19.52-77.728-45.664-109.952-77.952zM477.92 902.528c-13.984-4-27.872-10.912-41.408-20.48-25.472-17.984-49.888-45.664-70.528-80-14.304-23.776-26.592-50.272-36.896-79.104H477.92v179.584z m0-240.928H311.072c-9.248-39.264-14.784-80.384-16.544-122.72H477.92V661.6z m0-184.096H294.528c1.76-42.336 7.328-83.424 16.544-122.72H477.92v122.72z m0-184.064H329.088c10.304-28.864 22.624-55.264 36.896-79.104 20.64-34.432 45.056-62.08 70.528-80 13.6-9.568 27.424-16.448 41.408-20.48V293.44z m61.376-179.584c13.984 4.032 27.872 10.912 41.408 20.48 25.472 17.984 49.888 45.632 70.528 80 14.304 23.808 26.592 50.24 36.896 79.104H539.296V113.856z m0 240.928h166.848c9.216 39.264 14.784 80.384 16.544 122.72H539.296v-122.72z m0 184.096h183.392c-1.76 42.336-7.328 83.424-16.544 122.72H539.296V538.88z m41.472 343.168c-13.6 9.568-27.424 16.48-41.408 20.48l-0.064-179.584h148.832c-10.304 28.832-22.624 55.296-36.864 79.104-20.608 34.4-45.024 62.08-70.496 80z m209.888-91.872c-32.288 32.288-69.248 58.432-109.952 77.952 29.632-39.488 54.368-88.864 72.224-145.184h91.936c-15.52 24.16-33.6 46.688-54.208 67.232z m86.24-128.576H769.024c8.224-38.784 13.408-79.968 15.104-122.72h122.144c-3.136 42.4-13.024 83.488-29.376 122.72z m29.408-184.096H784.16c-1.728-42.752-6.88-83.968-15.104-122.72h107.872c16.352 39.232 26.208 80.32 29.376 122.72zM752.896 293.44c-17.856-56.32-42.528-105.728-72.224-145.184 40.8 19.552 77.728 45.664 109.952 77.92 20.608 20.576 38.72 43.072 54.176 67.264h-91.904z" p-id="3968" fill="#ffffff"></path></svg>