<?xml version="1.0" standalone="no"?><!DOCTYPE svg PUBLIC "-//W3C//DTD SVG 1.1//EN" "http://www.w3.org/Graphics/SVG/1.1/DTD/svg11.dtd"><svg t="1496892154205" class="icon" style="" viewBox="0 0 1024 1024" version="1.1" xmlns="http://www.w3.org/2000/svg" p-id="5490" xmlns:xlink="http://www.w3.org/1999/xlink" width="41" height="41"><defs><style type="text/css"></style></defs><path d="M922.704 752.885c23.912-41.845 41.845-83.691 53.801-131.513 17.933-77.712 17.933-161.403-5.977-239.115-5.978-17.933-11.956-35.867-17.933-59.779-41.845-89.668-107.602-173.359-203.248-227.159-95.646-53.801-197.27-71.735-298.894-59.779-17.933 0-41.845 5.977-59.779 11.956-77.712 17.933-149.447 59.779-209.226 113.58-35.867 29.889-59.779 65.756-83.691 107.602-65.756 113.58-77.712 251.071-47.823 370.628 29.889 113.58 107.602 221.182 221.182 286.938 113.58 65.756 239.115 77.712 358.673 47.823s227.159-101.624 292.916-221.182zM904.769 657.239c-77.712 29.889-161.403 41.845-245.093 29.889 11.956-23.912 17.933-47.823 29.889-65.756 53.801-95.646 131.513-161.403 221.182-209.226 23.912 77.712 23.912 161.403-5.977 245.093zM444.474 681.151c41.845 23.912 89.668 41.845 131.513 47.823-17.933 65.756-23.912 131.513-17.933 197.27-77.712 11.956-161.403 0-233.137-35.867l119.558-209.226zM641.743 591.483c-17.933 29.889-29.889 59.779-41.845 89.668-41.845-11.956-83.691-23.912-119.558-47.823l269.004-466.274c71.735 47.823 119.558 113.58 149.447 185.314-107.602 47.823-197.27 131.513-257.048 239.115zM689.566 137.164l-269.004 466.274c-35.867-23.912-71.735-53.801-101.624-83.691 17.933-23.912 41.845-53.801 53.801-77.712 59.779-107.602 83.691-227.159 77.712-340.739 83.691-11.956 167.38 0 239.115 35.867zM396.65 651.262l-119.557 209.226c-71.735-47.823-119.558-113.58-149.447-185.314 59.779-29.889 113.58-65.756 161.403-113.58 29.889 35.867 65.756 65.756 107.602 89.668zM396.65 113.253c5.978 101.624-17.933 203.248-71.735 298.894-11.956 23.912-29.889 41.845-41.845 59.779-47.823-65.756-83.691-143.469-95.646-227.159 59.779-65.756 131.513-113.58 209.226-131.513zM145.58 310.523c17.933 71.735 53.801 143.469 101.624 203.248-41.845 41.845-89.668 77.712-143.469 101.624-23.912-95.646-11.956-203.248 41.845-304.871zM641.743 746.907c77.712 11.956 155.424 5.978 227.159-11.956-59.779 95.646-149.447 161.403-245.093 185.314-5.977-59.779 0-119.558 17.933-173.359z" p-id="5491" fill="#ffffff"></path></svg>