<?xml version="1.0" standalone="no"?><!DOCTYPE svg PUBLIC "-//W3C//DTD SVG 1.1//EN" "http://www.w3.org/Graphics/SVG/1.1/DTD/svg11.dtd"><svg t="1496892204522" class="icon" style="" viewBox="0 0 1165 1024" version="1.1" xmlns="http://www.w3.org/2000/svg" p-id="6283" xmlns:xlink="http://www.w3.org/1999/xlink" width="46.6455078125" height="41"><defs><style type="text/css"></style></defs><path d="M1095.350305 797.317618s-30.286639 98.969288-104.494604 90.928318c-29.275818-3.169267-54.827557-26.874167-80.766904-54.394347 71.175501-87.933855 113.880802-199.899417 113.880802-321.843989 0-282.794365-229.198035-512.0076-511.946799-512.0076-282.786765 0-512.0228 229.213235-512.0228 512.0076 0 282.741164 229.243636 511.9924 512.0228 511.9924 121.207357 0 232.504104-42.234091 320.209955-112.641976 39.589235 28.91101 67.177817 75.340389 169.605178 78.175249 144.410646 4.005284 164.003859-124.20182 164.003859-124.20182l-70.491487-68.013835zM514.622055 100.626123c76.427212 0 138.330518 61.948907 138.330518 138.330517 0 76.419612-61.910906 138.330518-138.330518 138.330518s-138.322918-61.910906-138.322917-138.330518c-0.0076-76.366411 61.895706-138.330518 138.322917-138.330517z m50.077457 411.161073a52.737512 52.737512 0 1 1-105.475025 0 52.737512 52.737512 0 1 1 105.475025 0z m-323.212018 139.151335c-76.412012 0-138.345718-61.926106-138.345718-138.345718 0-76.381611 61.918506-138.330518 138.345718-138.330518 76.412012 0 138.330518 61.941307 138.330518 138.330518 0 76.412012-61.918506 138.345718-138.330518 138.345718z m273.134561 272.404946c-76.419612 0-138.322918-61.941307-138.322917-138.338118 0-76.381611 61.903306-138.338118 138.322917-138.338118 76.427212 0 138.330518 61.941307 138.330518 138.338118 0 76.404412-61.910906 138.338118-138.330518 138.338118z m271.682931-272.404946c-76.404412 0-138.338118-61.926106-138.338118-138.345718 0-76.381611 61.933706-138.330518 138.338118-138.330518 76.419612 0 138.330518 61.941307 138.330518 138.330518-0.0076 76.412012-61.903306 138.345718-138.330518 138.345718z" fill="#ffffff" p-id="6284"></path></svg>